<svg id="visual" viewBox="0 0 1400 300" width="1400" height="300" xmlns="http://www.w3.org/2000/svg" xmlns:xlink="http://www.w3.org/1999/xlink" version="1.1"><rect x="0" y="0" width="1400" height="300" fill="#fff"></rect><path d="M0 91L16.7 86.7C33.3 82.3 66.7 73.7 100 71.8C133.3 70 166.7 75 200 76.2C233.3 77.3 266.7 74.7 300 70.5C333.3 66.3 366.7 60.7 400 60C433.3 59.3 466.7 63.7 500 67.2C533.3 70.7 566.7 73.3 600 72.2C633.3 71 666.7 66 700 67.8C733.3 69.7 766.7 78.3 800 84.8C833.3 91.3 866.7 95.7 900 87.8C933.3 80 966.7 60 1000 55.2C1033.3 50.3 1066.7 60.7 1100 65.5C1133.3 70.3 1166.7 69.7 1200 68.2C1233.3 66.7 1266.7 64.3 1300 63.7C1333.3 63 1366.7 64 1383.3 64.5L1400 65L1400 301L1383.3 301C1366.7 301 1333.3 301 1300 301C1266.7 301 1233.3 301 1200 301C1166.7 301 1133.3 301 1100 301C1066.7 301 1033.3 301 1000 301C966.7 301 933.3 301 900 301C866.7 301 833.3 301 800 301C766.7 301 733.3 301 700 301C666.7 301 633.3 301 600 301C566.7 301 533.3 301 500 301C466.7 301 433.3 301 400 301C366.7 301 333.3 301 300 301C266.7 301 233.3 301 200 301C166.7 301 133.3 301 100 301C66.7 301 33.3 301 16.7 301L0 301Z" fill="#ccd2e0"></path><path d="M0 111L16.7 107C33.3 103 66.7 95 100 90.3C133.3 85.7 166.7 84.3 200 88.5C233.3 92.7 266.7 102.3 300 111C333.3 119.7 366.7 127.3 400 129.2C433.3 131 466.7 127 500 128.5C533.3 130 566.7 137 600 138.2C633.3 139.3 666.7 134.7 700 124.3C733.3 114 766.7 98 800 93C833.3 88 866.7 94 900 94C933.3 94 966.7 88 1000 90.3C1033.3 92.7 1066.7 103.3 1100 109.8C1133.3 116.3 1166.7 118.7 1200 115C1233.3 111.3 1266.7 101.7 1300 104.7C1333.3 107.7 1366.7 123.3 1383.3 131.2L1400 139L1400 301L1383.3 301C1366.7 301 1333.3 301 1300 301C1266.7 301 1233.3 301 1200 301C1166.7 301 1133.3 301 1100 301C1066.7 301 1033.3 301 1000 301C966.7 301 933.3 301 900 301C866.7 301 833.3 301 800 301C766.7 301 733.3 301 700 301C666.7 301 633.3 301 600 301C566.7 301 533.3 301 500 301C466.7 301 433.3 301 400 301C366.7 301 333.3 301 300 301C266.7 301 233.3 301 200 301C166.7 301 133.3 301 100 301C66.7 301 33.3 301 16.7 301L0 301Z" fill="#98a1b4"></path><path d="M0 130L16.7 137.5C33.3 145 66.7 160 100 162.2C133.3 164.3 166.7 153.7 200 147C233.3 140.3 266.7 137.7 300 144.2C333.3 150.7 366.7 166.3 400 172.3C433.3 178.3 466.7 174.7 500 174.7C533.3 174.7 566.7 178.3 600 176.8C633.3 175.3 666.7 168.7 700 167.7C733.3 166.7 766.7 171.3 800 171.3C833.3 171.3 866.7 166.7 900 159.2C933.3 151.7 966.7 141.3 1000 136.3C1033.3 131.3 1066.7 131.7 1100 134C1133.3 136.3 1166.7 140.7 1200 140.7C1233.3 140.7 1266.7 136.3 1300 134.8C1333.3 133.3 1366.7 134.7 1383.3 135.3L1400 136L1400 301L1383.3 301C1366.7 301 1333.3 301 1300 301C1266.7 301 1233.3 301 1200 301C1166.7 301 1133.3 301 1100 301C1066.7 301 1033.3 301 1000 301C966.7 301 933.3 301 900 301C866.7 301 833.3 301 800 301C766.7 301 733.3 301 700 301C666.7 301 633.3 301 600 301C566.7 301 533.3 301 500 301C466.7 301 433.3 301 400 301C366.7 301 333.3 301 300 301C266.7 301 233.3 301 200 301C166.7 301 133.3 301 100 301C66.7 301 33.3 301 16.7 301L0 301Z" fill="#667389"></path><path d="M0 194L16.7 199.7C33.3 205.3 66.7 216.7 100 217.3C133.3 218 166.7 208 200 207.5C233.3 207 266.7 216 300 213.3C333.3 210.7 366.7 196.3 400 189C433.3 181.7 466.7 181.3 500 182.5C533.3 183.7 566.7 186.3 600 189.5C633.3 192.7 666.7 196.3 700 198.2C733.3 200 766.7 200 800 201.5C833.3 203 866.7 206 900 204.2C933.3 202.3 966.7 195.7 1000 194.7C1033.3 193.7 1066.7 198.3 1100 197.7C1133.3 197 1166.7 191 1200 194.8C1233.3 198.7 1266.7 212.3 1300 213.3C1333.3 214.3 1366.7 202.7 1383.3 196.8L1400 191L1400 301L1383.3 301C1366.7 301 1333.3 301 1300 301C1266.7 301 1233.3 301 1200 301C1166.7 301 1133.3 301 1100 301C1066.7 301 1033.3 301 1000 301C966.7 301 933.3 301 900 301C866.7 301 833.3 301 800 301C766.7 301 733.3 301 700 301C666.7 301 633.3 301 600 301C566.7 301 533.3 301 500 301C466.7 301 433.3 301 400 301C366.7 301 333.3 301 300 301C266.7 301 233.3 301 200 301C166.7 301 133.3 301 100 301C66.7 301 33.3 301 16.7 301L0 301Z" fill="#364861"></path><path d="M0 256L16.7 251.7C33.3 247.3 66.7 238.7 100 236C133.3 233.3 166.7 236.7 200 238C233.3 239.3 266.7 238.7 300 241C333.3 243.3 366.7 248.7 400 253.5C433.3 258.3 466.7 262.7 500 260.2C533.3 257.7 566.7 248.3 600 243.5C633.3 238.7 666.7 238.3 700 241C733.3 243.7 766.7 249.3 800 249.5C833.3 249.7 866.7 244.3 900 245.5C933.3 246.7 966.7 254.3 1000 253.3C1033.3 252.3 1066.7 242.7 1100 241.8C1133.3 241 1166.7 249 1200 251.5C1233.3 254 1266.7 251 1300 253.7C1333.3 256.3 1366.7 264.7 1383.3 268.8L1400 273L1400 301L1383.3 301C1366.7 301 1333.3 301 1300 301C1266.7 301 1233.3 301 1200 301C1166.7 301 1133.3 301 1100 301C1066.7 301 1033.3 301 1000 301C966.7 301 933.3 301 900 301C866.7 301 833.3 301 800 301C766.7 301 733.3 301 700 301C666.7 301 633.3 301 600 301C566.7 301 533.3 301 500 301C466.7 301 433.3 301 400 301C366.7 301 333.3 301 300 301C266.7 301 233.3 301 200 301C166.7 301 133.3 301 100 301C66.7 301 33.3 301 16.7 301L0 301Z" fill="#00213b"></path></svg>