<svg id="visual" viewBox="0 0 1400 300" width="1400" height="300" xmlns="http://www.w3.org/2000/svg" xmlns:xlink="http://www.w3.org/1999/xlink" version="1.1"><rect x="0" y="0" width="1400" height="300" fill="#D8D8D8"></rect><path d="M0 207L16.7 211.3C33.3 215.7 66.7 224.3 100 226.2C133.3 228 166.7 223 200 221.8C233.3 220.7 266.7 223.3 300 227.5C333.3 231.7 366.7 237.3 400 238C433.3 238.7 466.7 234.3 500 230.8C533.3 227.3 566.7 224.7 600 225.8C633.3 227 666.7 232 700 230.2C733.3 228.3 766.7 219.7 800 213.2C833.3 206.7 866.7 202.3 900 210.2C933.3 218 966.7 238 1000 242.8C1033.3 247.7 1066.7 237.3 1100 232.5C1133.3 227.7 1166.7 228.3 1200 229.8C1233.3 231.3 1266.7 233.7 1300 234.3C1333.3 235 1366.7 234 1383.3 233.5L1400 233L1400 0L1383.3 0C1366.7 0 1333.3 0 1300 0C1266.7 0 1233.3 0 1200 0C1166.7 0 1133.3 0 1100 0C1066.7 0 1033.3 0 1000 0C966.7 0 933.3 0 900 0C866.7 0 833.3 0 800 0C766.7 0 733.3 0 700 0C666.7 0 633.3 0 600 0C566.7 0 533.3 0 500 0C466.7 0 433.3 0 400 0C366.7 0 333.3 0 300 0C266.7 0 233.3 0 200 0C166.7 0 133.3 0 100 0C66.7 0 33.3 0 16.7 0L0 0Z" fill="#a6b9cf"></path><path d="M0 187L16.7 191C33.3 195 66.7 203 100 207.7C133.3 212.3 166.7 213.7 200 209.5C233.3 205.3 266.7 195.7 300 187C333.3 178.3 366.7 170.7 400 168.8C433.3 167 466.7 171 500 169.5C533.3 168 566.7 161 600 159.8C633.3 158.7 666.7 163.3 700 173.7C733.3 184 766.7 200 800 205C833.3 210 866.7 204 900 204C933.3 204 966.7 210 1000 207.7C1033.3 205.3 1066.7 194.7 1100 188.2C1133.3 181.7 1166.7 179.3 1200 183C1233.3 186.7 1266.7 196.3 1300 193.3C1333.3 190.3 1366.7 174.7 1383.3 166.8L1400 159L1400 0L1383.3 0C1366.7 0 1333.3 0 1300 0C1266.7 0 1233.3 0 1200 0C1166.7 0 1133.3 0 1100 0C1066.7 0 1033.3 0 1000 0C966.7 0 933.3 0 900 0C866.7 0 833.3 0 800 0C766.7 0 733.3 0 700 0C666.7 0 633.3 0 600 0C566.7 0 533.3 0 500 0C466.7 0 433.3 0 400 0C366.7 0 333.3 0 300 0C266.7 0 233.3 0 200 0C166.7 0 133.3 0 100 0C66.7 0 33.3 0 16.7 0L0 0Z" fill="#7e99bd"></path><path d="M0 168L16.7 160.5C33.3 153 66.7 138 100 135.8C133.3 133.7 166.7 144.3 200 151C233.3 157.7 266.7 160.3 300 153.8C333.3 147.3 366.7 131.7 400 125.7C433.3 119.7 466.7 123.3 500 123.3C533.3 123.3 566.7 119.7 600 121.2C633.3 122.7 666.7 129.3 700 130.3C733.3 131.3 766.7 126.7 800 126.7C833.3 126.7 866.7 131.3 900 138.8C933.3 146.3 966.7 156.7 1000 161.7C1033.3 166.7 1066.7 166.3 1100 164C1133.3 161.7 1166.7 157.3 1200 157.3C1233.3 157.3 1266.7 161.7 1300 163.2C1333.3 164.7 1366.7 163.3 1383.3 162.7L1400 162L1400 0L1383.3 0C1366.7 0 1333.3 0 1300 0C1266.7 0 1233.3 0 1200 0C1166.7 0 1133.3 0 1100 0C1066.7 0 1033.3 0 1000 0C966.7 0 933.3 0 900 0C866.7 0 833.3 0 800 0C766.7 0 733.3 0 700 0C666.7 0 633.3 0 600 0C566.7 0 533.3 0 500 0C466.7 0 433.3 0 400 0C366.7 0 333.3 0 300 0C266.7 0 233.3 0 200 0C166.7 0 133.3 0 100 0C66.7 0 33.3 0 16.7 0L0 0Z" fill="#5a79ab"></path><path d="M0 104L16.7 98.3C33.3 92.7 66.7 81.3 100 80.7C133.3 80 166.7 90 200 90.5C233.3 91 266.7 82 300 84.7C333.3 87.3 366.7 101.7 400 109C433.3 116.3 466.7 116.7 500 115.5C533.3 114.3 566.7 111.7 600 108.5C633.3 105.3 666.7 101.7 700 99.8C733.3 98 766.7 98 800 96.5C833.3 95 866.7 92 900 93.8C933.3 95.7 966.7 102.3 1000 103.3C1033.3 104.3 1066.7 99.7 1100 100.3C1133.3 101 1166.7 107 1200 103.2C1233.3 99.3 1266.7 85.7 1300 84.7C1333.3 83.7 1366.7 95.3 1383.3 101.2L1400 107L1400 0L1383.3 0C1366.7 0 1333.3 0 1300 0C1266.7 0 1233.3 0 1200 0C1166.7 0 1133.3 0 1100 0C1066.7 0 1033.3 0 1000 0C966.7 0 933.3 0 900 0C866.7 0 833.3 0 800 0C766.7 0 733.3 0 700 0C666.7 0 633.3 0 600 0C566.7 0 533.3 0 500 0C466.7 0 433.3 0 400 0C366.7 0 333.3 0 300 0C266.7 0 233.3 0 200 0C166.7 0 133.3 0 100 0C66.7 0 33.3 0 16.7 0L0 0Z" fill="#385998"></path><path d="M0 42L16.7 46.3C33.3 50.7 66.7 59.3 100 62C133.3 64.7 166.7 61.3 200 60C233.3 58.7 266.7 59.3 300 57C333.3 54.7 366.7 49.3 400 44.5C433.3 39.7 466.7 35.3 500 37.8C533.3 40.3 566.7 49.7 600 54.5C633.3 59.3 666.7 59.7 700 57C733.3 54.3 766.7 48.7 800 48.5C833.3 48.3 866.7 53.7 900 52.5C933.3 51.3 966.7 43.7 1000 44.7C1033.3 45.7 1066.7 55.3 1100 56.2C1133.3 57 1166.7 49 1200 46.5C1233.3 44 1266.7 47 1300 44.3C1333.3 41.7 1366.7 33.3 1383.3 29.2L1400 25L1400 0L1383.3 0C1366.7 0 1333.3 0 1300 0C1266.7 0 1233.3 0 1200 0C1166.7 0 1133.3 0 1100 0C1066.7 0 1033.3 0 1000 0C966.7 0 933.3 0 900 0C866.7 0 833.3 0 800 0C766.7 0 733.3 0 700 0C666.7 0 633.3 0 600 0C566.7 0 533.3 0 500 0C466.7 0 433.3 0 400 0C366.7 0 333.3 0 300 0C266.7 0 233.3 0 200 0C166.7 0 133.3 0 100 0C66.7 0 33.3 0 16.7 0L0 0Z" fill="#153a83"></path></svg>